# xmcd CD database file
#
# Track frame offsets:
#	150
#	17892
#	38378
#	61124
#	97334
#	130088
#	161863
#	183320
#	209648
#	238806
#
# Disc length: 3472 seconds
#
# Revision: 0
# Processed by: cddbd v1.5.2PL0 Copyright (c) Steve Scherf et al.
# Submitted via: CDex 1.70beta2
#
DISCID=8a0d8e0a
DTITLE=Harold O'Neal - Whirling Mantis
DYEAR=2010
DGENRE=Jazz
TTITLE0=Aint G
TTITLE1=Oesap's Travels
TTITLE2=Bus Top
TTITLE3=(A Wish) Song For
TTITLE4=Motion M
TTITLE5=Whirling Mantis
TTITLE6=Pianistic Jazz
TTITLE7=Neptune Dream
TTITLE8=(A Rider) Whisper
TTITLE9=The I.P.
EXTD=YEAR: 2010
EXTT0=
EXTT1=
EXTT2=
EXTT3=
EXTT4=
EXTT5=
EXTT6=
EXTT7=
EXTT8=
EXTT9=
PLAYORDER=
